<svg data-root-id="4098663684784" xmlns="http://www.w3.org/2000/svg"
     version="1.1" id="Layer_1" x="175.1481916853722" y="178.86355435847838"
     viewBox="1.9984244108200073 4.261427402496338 160.7120819091797 107.46355438232422" xml:space="preserve"
     height="150.25286209059627" width="224.70382273016006" preserveAspectRatio="xMinYMin"
     data-layer-role="icon">
    <defs>
        <radialGradient id="grad1" x1="0%" y1="0%" x2="100%" y2="0%">
            <stop offset="15%" style="stop-color:rgb(0,0,0);stop-opacity:1"/>
            <stop offset="50%" style="stop-color:rgb(48,8,85); stop-opacity: 1"/>
            <stop offset="85%" style="stop-color:rgb(156,30,14);stop-opacity:1"/>
        </radialGradient>
    </defs>
    <svg fill="url(#grad1)">
    <path d="M148.3,72.2c0.5-0.1,1.2-0.4,1.4,0.3c0.2,0.6-0.4,0.8-0.8,1.1c-2.3,1.5-4.9,2.4-7.4,3.5c-4.4,1.9,1.6-0.3-2.8,1.2    c-2.4,0.8-4.7,1.7-7.2,2.3c-1.7,0.4-1.6,1.8-1.8,2.8c-0.3,2-8.1,5.7-0.8,3.7c7.3-2,6.2,1.2-3.5,4.7c-9.7,3.5-5.9-0.3-10.9,1.5    s-1.4-2.7-4.3-6.6c-2.4-3.3-4.2-4.2-6.1-4.1c-2,0.1-1.6,1.7-1.7,3.1c-0.1,1.7-0.8,2.9-2.5,3.8c-5.9,3-7.8,3.8-14.1,5.7    c-7,2.1-13.6,5.2-20.6,7.4c-2.1,0.7-4.3,1.1-6.4,1.7c-3.1,1-6.2,2-9.4,2.7c-1.6,0.4-3.3,0.8-5,0.7c-0.3,0-0.7,0-0.6-0.4    c0-0.3-5.7,0.5-11.1,2.6c-1.7,0.6-3.4,1.2-5.1,1.7c-0.3,0.1-0.7,0.3-0.9-0.2c-0.1-0.4,0.3-0.4,0.6-0.5c3.8-1.7,7.6-3.3,11.4-4.9    c3.4-1.4,11-3.7,10.8-4.1s-1.7,0.1-2.3,0.1c-0.3,0-0.7,0.3-0.9-0.2c-0.1-0.4,0.1-0.6,0.4-0.8c0.7-0.5,2.1-1.1,1.9-1.5    c-0.2-0.4-3.6,0.4-5.4,1.2c-1.5,0.7-2.9,0.6-4.3,0.1c-0.9-0.3-1.7-0.3-2.6-0.2c-2.8,0.5-5.3,1.9-7.9,2.9c-0.8,0.3-1.6,0.3-2.3,0.6    c-1,0.3-2.3-0.1-2.7-1c-0.4-1-0.2-1.9,0.8-2.9c1.5-1.5,3.3-2.2,5.2-3c0.5-0.2,1.9-0.6,1.6-1.3c-0.4-0.6-4.4,1-6.3,2.1    c-0.3,0.2-0.6,0.3-0.9,0.4c-0.4,0.1-0.7-0.1-0.7-0.5c-0.1-0.3,0.1-0.6,0.4-0.7c0.3-0.1-0.3-0.5-0.3-1.3c0-0.6,0.3-1.1,0.6-1.6    c0.6-0.9,1.2-1.8,0.3-1.5c-2.8,0.8-5.6,1.7-8.4,2.6c-1.5,0.5-3,0.4-4.5,0.2c-0.9-0.1-1.7,0-2.6,0.3c-1.7,0.6-3.5,1.2-5.2,1.8    c-0.4,0.1-1.3,0.5-1.4-0.1c-0.1-0.6,4.6-3.1,5.5-3.7s0.2-1.6,0.7-2.1c0.5-0.5,0.2-1,0.1-1.3c-0.1-0.3-0.7-0.3-1-0.1    c-0.4,0.1-0.7,0.3-1-0.1c-0.2-0.4-0.1-0.8,0.2-1c0.8-0.9,1.7-1.4,2.8-1.8c2.7-1.1,5.6-1.7,8.1-3.3c1.9-1.2,3.8-1.7,6.1-2.9    c2.3-1.2,3.3-1.4,3.4-3.7c0-0.6,0-1.6,0-2.2c0-0.6-2.7,0.8-4.3,1c-2.1,0.3-2.9-0.3-2.9-2.5c0-1.8,0-3.5,0-5.3    c0-2.1,0.9-3.4,2.9-4.1c1.9-0.7,3.9-1.2,5.8-1.9c1.5-0.5,2.3-1.3,2.5-2.9c0.1-0.9,0.3-1.7,0.5-2.6c0.2-1.2-0.1-1.5-1.2-1    c-0.9,0.4-1.9,0.5-2.8,0.6c-1.1,0-2.6-0.1-2.8-1.4c-0.3-2.2,5.4-3.8,6.3-4.2c0.9-0.4,0.4-0.6,0.6-1.6s3.8-1.5,5.7-2.4    c2.5-1.3,2.3-2.6,3.3-5.3c1-2.7-4.1-1.4-6.3-0.8c-3.3,1-6.7,1.2-10,1.5c-1.2,0.1-2.5,0.5-3.7,0.7C20.5,43,20,43.2,20,42.7    c-0.1-0.4,0.3-0.6,0.6-0.7c2.7-1.1,5.4-2.3,8.2-3.1c1-0.3,2-0.7,2.9-1.2c3-1.6,6.1-2.7,9.4-3.3c1.1-0.2,2-0.8,2.7-1.7    c2.6-3.4,6.3-4.7,10.2-5.8c3.1-0.9,6.2-1.9,9.4-2.9c4-1.3,8.1-2.5,12.1-3.8c7.1-2.4,14.1-5,21.2-7.4c4.8-1.6,9.6-3.2,14.3-5.1    c0.6-0.2,1.4-0.4,1.8,0.4c0.3,0.8-0.4,1.1-0.9,1.4c-0.8,0.5-1.8,0.7-2.7,1c-1.3,0.4-2.6,0.8-3.9,1.4c-1.3,0.6-5,3-3.1,2.7    c1.8-0.3,6.1-1.5,9-2.7c1.3-0.6,2.7-1.1,4.1-1.6c1.2-0.4,2.4-0.1,2.9,0.8c0.9,1.5,0.8,2.8-0.4,3.6c-1.5,1-3.2,1.6-4.9,2.2    c-1.1,0.3-1.9,0.4-3.3,1.1c-1.4,0.7,1,1.3,2,0.9c1.8-0.7,3.7-1.4,5.5-2c0.8-0.3,1.6-0.6,1.8,0.7c0.1,0.6,0.5,0.3,0.9,0.2    c3.9-0.9,7.4-2.6,10.8-4.6c1.7-1,3.6-0.3,4.2,0c0.3,0.1,1.1,0.5,1,1.2c-0.1,0.7,1.6,0.1,3.5-0.4c1.6-0.5,3.2-1.1,4.8-1.6    c0.6-0.2,4.1-0.5,4.9,0.6s-0.2,1.8,0.2,2.7c0.4,0.9-0.5,2.1-1.5,2.6c-1.2,0.7-2.6,1.2-4.1,1.2c-1.4,0-2.7,0.5-4,1    c-2.4,0.9-4.9,1.8-7.3,2.7c-1,0.4-3.1,1.1-2.9,1.9c0.2,0.8,5-0.9,7.2-1.7c2-0.6,4,1.1,3.7,3.2c-0.3,1.9-1.4,3.5-3,4.3    c-14.7,8.2-5.2,2.4-3.9,10c0.3,1.5-3.8,4-3.6,5.5c0.1,0.8,1.4,1.8,2.1,2.3c1.9,1.2,7.8,0,9.6-1.1c0.8-0.5,1.5-0.9,2.4-1.2    c1.4-0.4,2.5,0,3,1.1c0.5,1.2,0.1,2.4-1,3.2c-1.8,1.2-3.7,2-5.7,2.6c-1.2,0.3-2.4,0.4-3.5,1.1c-1,0.8,2.9,0.7,4.1,1.7    c1.5,1.2-0.6,2.7,1.3,2.5s3.3-0.6,5.4-1.5c3.2-1.2,5.8-3.3,8.7-5c0.9-0.5,1.9-0.9,2.9-1.2c1.2-0.4,2.8,0.5,3.4,1.8    c0.5,1,0.1,1.8-1.1,2.8c-1.9,1.6-4.4,1.9-6.6,2.6c-1.9,0.6-3.9,1-5.6,2.2c-1,0.7,0.5,1.4,1.4,1.9c0.8,0.4,0.9,1.5,0.7,2.5    c-0.5,2.5-2.3,3.8-4.4,5C142.3,72,145.5,72.7,148.3,72.2z M115.6,32.5c-0.7-1.2-1.6-2.5-3.1-3.5c-0.2-0.1-0.5-0.4-0.8-0.5    c-2.7-0.8-5.4-1-8.2-0.8c-2.3,0.1-4.4,0.5-5.5,2.9c-0.4,1-1.5,1.2-2.5,1.3c-1.2,0.1-2.2,0.5-3.3,0.9c-0.6,0.2-1.3,0.5-1.9,0.6    c-7.9,1.1-15.8,1.7-23.8,1.4c-0.8,0-1.1-0.3-1.2-1.1c-0.1-1.5-1-2.2-2.5-2.2c-1.9,0-3.7,0.5-5.6,0.8c-3.3,0.7-6.6,1.4-9.2,4    c-0.9,0.9-1.3,1.3-1.8,2.4c-0.5,1.1,1.2-0.2,1.9-0.5c0.8-0.4,2.9-0.9,2.3-0.2c-0.8,0.9-1.5,1.3-2.8,2.6c-1.2,1.1-1.6,1.6-2.7,2.7    c-0.3,0.3-0.4,0.5-0.5,0.8c-0.6,1.8-1.1,2.8-1.4,4.7c-0.7,3.4-1.6,6.8-2.3,10.3c-0.9,3.8-1.7,7.7-2.3,11.5c-0.6,4-1.1,8-0.5,12    c0.5,3.7,2,6.9,5.4,8.9c2.7,1.6,6.5,1.5,8.4-2.2c2.2-4.4,4.1-9,6.1-13.5c0.8-1.8,2-3.2,4-3.9c1.7-0.6,3.1,0.1,4.5,0.4    c3.6,0.9,7.1,0.7,9.9-1.9c1.5-1.3,3.1-2.1,5-2.3c2.6-0.2,5.2-0.6,7.7,1.1c1.3,0.9,3,1.2,4.7,1.3c2.5,0.2,4.8-0.6,7-1.7    c0.9-0.4,1.8-0.6,2.8-0.5c2.4,0.3,3.5,2,4.5,3.9c1.9,3.7,3.2,7.6,5.6,11.1c1.5,2.1,3.1,4,6,3.4c4.1-0.8,7.4-4.6,7.7-8.8    c0.3-4.2,0-8.3-1-12.4c-1-4.4-2.1-8.9-3.3-13.3c-1.1-4.3-2.1-8.6-3.7-12.6c-0.8-1.9-3.1-4.1-3.8-4.6c-0.7-0.5-2.1-1.2-3.3-1.5    c-1.2-0.4-1-1-0.5-1.1c1.2-0.3,1.9-0.1,2.7,0.1C115.2,32.7,116.3,33.7,115.6,32.5z"
          name="Layer %{number}" zoom="1" data-layer-id="5730296584792"></path>
        <path d="M46.3,91.9c-0.5,0-2.8-0.5-3.9-1.5c-2.6-2.3-3.7-5.3-4.1-8.6c0-0.4-0.2-0.7,0.2-1c0.4-0.2,0.5,0.6,0.6,0.9    c0.8,3.2,1.8,6.2,4.8,8.1c1.1,0.7,2.3,1.2,3.7,1.1c0.3,0,0.7,0,0.7,0.3c0,0.3-0.3,0.4-0.6,0.6S46.8,91.8,46.3,91.9z"
              name="Layer %{number}" zoom="1" data-layer-id="5042116484821"></path>
        <path d="M64.5,35.4c0.8,0.1,2.1,0.5,3.2,1.1c0.5,0.3,0.5,0.9-0.1,1c-1.6,0.2-3.1-0.2-4.6-0.8c-0.4-0.2-0.4-0.6,0-0.9    C63.2,35.4,63.7,35.3,64.5,35.4z"
              name="Layer %{number}" zoom="1" data-layer-id="1386143684825"></path>
        <path d="M95.7,34.3c-0.2,0-0.4-0.1-0.6-0.4c-0.1-0.3,0-0.6,0.2-0.8c1.1-0.7,2.2-1.5,3.6-1.6c0.4,0,0.9,0,1,0.5    c0.1,0.4-0.3,0.7-0.6,0.9C98.3,33.6,97.1,34.1,95.7,34.3z"
              name="Layer %{number}" zoom="1" data-layer-id="3947577484830"></path>
        <path d="M76.7,61.1c0.2,4.2-3.6,7-7,7.1c-3.1,0.1-7.6-2.9-7.4-7.2c0.1-3.8,3.4-7.2,7.3-7.2C73.7,53.9,76.7,56.8,76.7,61.1z"
              name="Layer %{number}" zoom="1" data-layer-id="2501260584835"></path>
        <path d="M94.7,66.2c-3.6,0-7.2-3.6-7.2-7.3c0-4,3.1-7.4,6.6-7.3c4.2,0.1,7.5,3.8,7.5,7.9C101.6,63.3,98.6,66.2,94.7,66.2z"
              name="Layer %{number}" zoom="1" data-layer-id="7026800684839"></path>
        <path d="M50.2,51.3c0-0.7,0.4-1.2,1.1-1.4c1-0.3,1.8-0.8,2.8-1.2c0.9-0.3,1.1-0.9,1-1.7c-0.1-0.4-0.1-0.8-0.1-1.2    c-0.2-1.5,0.6-2.3,2.4-2.7c1.2-0.2,1.7,0.3,2.2,1.8c0.2,0.8-0.2,2,0.6,2.4c0.7,0.4,1.6,0.2,2.5,0.3c1.1,0.1,1.8,0.7,2,1.8    c0.2,1.2-0.7,1.6-1.7,1.8c-0.1,0-0.3,0.1-0.4,0.1c-0.8,0.4-1.8,0.1-2.5,0.7c-0.8,0.7,0.2,1.5,0.1,2.4c-0.1,1-0.4,1.8-1.3,2.2    c-1.4,0.7-2.3,0.4-2.9-1.1c0-0.1-0.1-0.3-0.1-0.4c-0.5-0.7,0.4-2.1-0.8-2.4c-0.8-0.2-1.7,0.3-2.6,0.5    C50.6,53.6,50.1,53.2,50.2,51.3z"
              name="Layer %{number}" zoom="1" data-layer-id="9339990384844"></path>
        <path d="M113.9,43c1.1,0,3,1.6,3,2.6c0,1.3-1.7,3.2-3,3.2c-1,0-3.1-2-3.1-2.9C110.7,44.9,112.7,43.1,113.9,43z"
              name="Layer %{number}" zoom="1" data-layer-id="3173834484848"></path>
        <path d="M108.9,39.7c-0.1,1.1-0.9,1.7-1.6,2.3c-1.5,1.5-1.5,1.5-3.1,0c-0.1-0.1-0.2-0.2-0.3-0.3c-0.8-0.7-2.1-1.3-1.1-2.7     c1.3-1.7,2.9-2.2,4.4-1.3C108.1,38.3,108.8,38.8,108.9,39.7z"
              name="Layer %{number}" zoom="1" data-layer-id="2015626684852"></path>
        <path d="M108.1,50.6c1,0,2.8,1.8,2.8,2.7c0,1.1-2.3,3.2-3.4,3.2c-0.6,0-2.6-1.9-2.6-2.4C105,52.9,107.1,50.6,108.1,50.6z"
              name="Layer %{number}" zoom="1" data-layer-id="0737497284856"></path>
        <path d="M97.8,47.3c0-1.2,1.7-2.8,2.8-2.8c1.1,0,2.8,1.6,2.7,2.6c-0.1,1.1-1.9,3.1-2.8,3.1C99.6,50.1,97.8,48.3,97.8,47.3z"
              name="Layer %{number}" zoom="1" data-layer-id="3060152584860"></path></svg>
</svg>